<svg width="676" height="152" viewBox="0 0 676 152" fill="none" xmlns="http://www.w3.org/2000/svg">
<g clip-path="url(#clip0_1120_11026)">
<path d="M288.71 87.6341C283.858 87.6341 281.198 86.9691 277.113 85.2908L275.6 84.6005L273.883 94.5755C276.835 95.7915 282.155 96.8365 287.658 96.9188C300.585 96.9188 309.033 90.9211 309.135 81.6935C309.236 76.6205 305.905 72.7698 298.868 69.5968C294.6 67.5385 291.94 66.1578 291.94 64.0678C291.94 62.2185 294.213 60.2488 298.963 60.2488C302.12 60.1729 305.258 60.753 308.178 61.9525L309.318 62.4591L311.035 52.8198L310.737 52.8831C307.202 51.6144 303.472 50.9777 299.717 51.0021C287.557 51.0021 278.975 57.0441 278.912 65.7018C278.836 72.0668 285.017 75.6515 289.685 77.7858C294.479 79.9708 296.082 81.3451 296.069 83.3085C296.037 86.2915 292.237 87.6341 288.71 87.6341ZM342.296 51.8191H332.796C329.838 51.8191 327.628 52.6108 326.33 55.5115L308.058 96.2981H320.984L323.568 89.6228L339.338 89.6355C339.725 91.1935 340.858 96.2981 340.858 96.2981H352.252L342.296 51.8191ZM327.109 80.4965L332.011 68.0641C331.947 68.1908 333.024 65.4928 333.645 63.8208L334.487 67.6588L337.331 80.4965H327.109ZM253.731 95.9435H266.043L273.738 51.4455H261.432V51.4328L253.731 95.9435ZM231.431 82.1495L230.152 75.9681V75.9871L225.832 55.5558C225.091 52.7248 222.925 51.8888 220.24 51.7875H200.41L200.252 52.7248C204.717 53.7698 208.739 55.2835 212.336 57.1391C212.895 57.4657 213.304 57.9975 213.476 58.6211L224.116 96.2348H237.125L256.511 51.8191H243.471L231.431 82.1495Z" fill="#191E6E"/>
</g>
<g clip-path="url(#clip1_1120_11026)">
<path d="M91.66 47.5466H60.2441V104.452H91.66V47.5466Z" fill="#FF5F00"/>
<path d="M62.2416 75.9995C62.2366 70.5191 63.4687 65.1093 65.8445 60.1798C68.2203 55.2503 71.6776 50.9302 75.9547 47.5466C70.6582 43.3502 64.2971 40.7405 57.5987 40.0158C50.9003 39.2911 44.1347 40.4806 38.0753 43.4485C32.0159 46.4164 26.9071 51.0428 23.3329 56.799C19.7587 62.5552 17.8633 69.2088 17.8633 75.9995C17.8633 82.7902 19.7587 89.4438 23.3329 95.2C26.9071 100.956 32.0159 105.583 38.0753 108.55C44.1347 111.518 50.9003 112.708 57.5987 111.983C64.2971 111.259 70.6582 108.649 75.9547 104.452C71.6777 101.069 68.2204 96.7487 65.8445 91.8192C63.4687 86.8897 62.2366 81.4799 62.2416 75.9995Z" fill="#EB001B"/>
<path d="M134.043 75.9995C134.043 82.7901 132.148 89.4437 128.574 95.1999C125 100.956 119.891 105.582 113.832 108.55C107.773 111.518 101.007 112.708 94.3088 111.983C87.6105 111.259 81.2495 108.649 75.9531 104.452C80.2264 101.065 83.6811 96.7446 86.0565 91.8159C88.4319 86.8871 89.6662 81.4791 89.6662 75.9995C89.6662 70.5199 88.4319 65.1119 86.0565 60.1831C83.6811 55.2544 80.2264 50.9336 75.9531 47.5466C81.2495 43.3501 87.6105 40.7404 94.3088 40.0158C101.007 39.2911 107.773 40.4807 113.832 43.4486C119.891 46.4165 125 51.0429 128.574 56.7991C132.148 62.5553 134.043 69.2089 134.043 75.9995Z" fill="#F79E1B"/>
<path d="M130.619 98.4252V97.2602H131.085V97.0228H129.898V97.2602H130.365V98.4252H130.619ZM132.924 98.4252V97.0205H132.56L132.141 97.9867L131.723 97.0205H131.359V98.4252H131.616V97.3656L132.008 98.2791H132.274L132.667 97.3633V98.4252H132.924Z" fill="#F79E1B"/>
</g>
<g clip-path="url(#clip2_1120_11026)">
<path d="M400.506 38.603C451.194 38.603 501.881 38.603 554.105 38.603C554.105 63.2849 554.105 87.9668 554.105 113.397C503.417 113.397 452.73 113.397 400.506 113.397C400.506 88.7148 400.506 64.0329 400.506 38.603Z" fill="#FDA7CC"/>
<path d="M521.621 71.3432C522.55 71.8792 523.337 72.4384 524.021 73.2775C523.879 72.1427 523.879 72.1427 523.734 70.985C525.531 70.985 527.328 70.985 529.179 70.985C529.179 76.7536 529.179 82.5221 529.179 88.4655C527.477 88.4655 525.775 88.4655 524.021 88.4655C524.021 87.6144 524.021 86.7633 524.021 85.8864C523.737 86.1997 523.454 86.5129 523.161 86.8357C521.622 88.3536 520.216 88.7848 518.075 88.9133C515.799 88.8442 513.857 88.0068 512.214 86.4249C510.016 83.7609 509.64 80.9859 509.893 77.6275C510.169 75.6352 511.207 73.916 512.666 72.5611C513.005 72.3124 513.351 72.0731 513.705 71.8447C513.868 71.7272 514.032 71.6098 514.201 71.4887C516.409 70.1235 519.331 70.249 521.621 71.3432Z" fill="#130823"/>
<path d="M467.991 71.146C469.129 71.8253 469.932 72.7957 470.714 73.8505C470.572 73.4249 470.572 73.4249 470.427 72.9908C470.427 72.3288 470.427 71.6669 470.427 70.9848C472.129 70.9848 473.832 70.9848 475.585 70.9848C475.585 76.6588 475.585 82.3328 475.585 88.1788C473.883 88.1788 472.181 88.1788 470.427 88.1788C470.522 87.3277 470.616 86.4766 470.714 85.5997C470.483 85.907 470.253 86.2144 470.015 86.531C468.801 87.9303 467.481 88.6166 465.64 88.8504C463.17 88.9333 461.259 88.4482 459.323 86.8892C457.596 85.2589 456.525 82.9745 456.327 80.6005C456.275 77.6181 456.863 75.1869 458.965 72.9908C461.472 70.7787 464.742 69.6818 467.991 71.146Z" fill="#100621"/>
<path d="M425.729 63.5339C427.525 63.5339 429.322 63.5339 431.173 63.5339C431.268 67.5057 431.362 71.4775 431.46 75.5697C435.432 72.5906 438.657 69.9119 439.591 64.8951C439.65 64.4459 439.709 63.9967 439.77 63.5339C441.567 63.5339 443.364 63.5339 445.215 63.5339C445.033 69.0514 442.868 72.7138 438.911 76.4294C439.312 77.292 439.785 78.0221 440.359 78.7801C440.534 79.0118 440.708 79.2435 440.888 79.4822C441.075 79.7278 441.262 79.9734 441.454 80.2264C441.644 80.4788 441.835 80.7312 442.031 80.9913C442.614 81.7638 443.198 82.5355 443.782 83.307C444.446 84.1839 445.108 85.0616 445.77 85.9398C445.917 86.1336 446.065 86.3275 446.216 86.5272C447.221 87.8597 447.221 87.8597 447.221 88.1786C444.944 88.5679 442.586 88.8559 440.343 88.1786C438.518 86.8692 437.4 84.8567 436.257 82.9635C435.516 81.7703 434.665 80.6728 433.806 79.5637C433.535 79.2027 433.264 78.8412 432.995 78.479C432.484 77.7953 431.972 77.1122 431.46 76.4294C431.365 80.3066 431.271 84.1839 431.173 88.1786C429.376 88.1786 427.58 88.1786 425.729 88.1786C425.729 80.0459 425.729 71.9131 425.729 63.5339Z" fill="#0D051D"/>
<path d="M503.331 70.8646C505.275 71.53 506.513 72.7604 507.686 74.4243C507.956 75.2353 508.008 75.7261 508.005 76.5653C508.005 76.8234 508.005 77.0815 508.005 77.3475C508.004 77.6251 508.002 77.9028 508.001 78.1888C508 78.4738 508 78.7588 507.999 79.0525C507.998 79.9635 507.994 80.8744 507.991 81.7854C507.989 82.4028 507.988 83.0201 507.987 83.6375C507.984 85.1515 507.979 86.6654 507.973 88.1794C506.27 88.1794 504.568 88.1794 502.815 88.1794C502.804 87.4306 502.793 86.6819 502.782 85.9104C502.769 85.1829 502.754 84.4555 502.739 83.7281C502.73 83.2236 502.722 82.7191 502.715 82.2146C502.706 81.4882 502.691 80.7621 502.675 80.0358C502.673 79.8113 502.671 79.5867 502.669 79.3554C502.634 78.0507 502.483 77.1793 501.668 76.1437C500.544 75.4881 499.51 75.4132 498.229 75.5705C497.378 76.0829 496.675 76.6741 496.224 77.5765C496.178 78.3909 496.149 79.1994 496.133 80.0145C496.127 80.2554 496.121 80.4963 496.115 80.7445C496.096 81.5153 496.079 82.2862 496.062 83.0571C496.05 83.5791 496.037 84.1011 496.025 84.6231C495.994 85.904 495.965 87.185 495.937 88.466C494.14 88.466 492.343 88.466 490.492 88.466C490.492 82.6974 490.492 76.9289 490.492 70.9855C492.194 70.9855 493.897 70.9855 495.65 70.9855C495.556 72.0257 495.461 73.0659 495.364 74.1377C495.517 73.8836 495.671 73.6294 495.829 73.3676C497.67 70.5937 500.18 70.2142 503.331 70.8646Z" fill="#110821"/>
<path d="M448.941 63.5342C450.738 63.5342 452.535 63.5342 454.386 63.5342C454.386 71.7615 454.386 79.9888 454.386 88.4654C452.589 88.4654 450.793 88.4654 448.941 88.4654C448.941 80.2381 448.941 72.0108 448.941 63.5342Z" fill="#130A21"/>
<path d="M478.172 70.9854C479.874 70.9854 481.576 70.9854 483.33 70.9854C483.33 71.7419 483.33 72.4984 483.33 73.2779C483.49 73.0592 483.649 72.8405 483.814 72.6152C484.506 71.8101 484.934 71.3973 485.909 70.9854C486.76 70.9854 487.611 70.9854 488.488 70.9854C488.488 72.6876 488.488 74.3898 488.488 76.1435C487.823 76.1701 487.823 76.1701 487.145 76.1973C486.003 76.3073 485.677 76.3869 484.745 77.1286C483.854 78.3072 483.845 79.1878 483.813 80.6234C483.807 80.8388 483.801 81.0543 483.794 81.2762C483.776 81.9653 483.759 82.6544 483.742 83.3435C483.73 83.8103 483.717 84.2771 483.704 84.7439C483.674 85.889 483.645 87.0341 483.617 88.1793C481.82 88.1793 480.023 88.1793 478.172 88.1793C478.172 82.5053 478.172 76.8313 478.172 70.9854Z" fill="#120720"/>
<path d="M520.864 75.2832C522.114 75.8164 522.752 76.5111 523.425 77.6832C523.852 79.1409 523.925 80.1852 523.407 81.6235C522.606 82.8517 521.71 83.6937 520.291 84.1668C518.65 84.3216 517.838 84.067 516.565 83.0205C515.405 81.735 515.026 80.7785 515.052 79.0254C515.232 77.7046 516.07 76.9001 517.031 76.0534C518.294 75.1563 519.34 75.0662 520.864 75.2832Z" fill="#F8A3C9"/>
<path d="M466.988 75.2834C468.188 75.7451 469.024 76.3057 469.853 77.2893C470.406 78.9482 470.417 80.6924 469.692 82.2863C468.572 83.4639 467.497 84.2094 465.842 84.3281C464.507 84.253 463.62 83.6622 462.689 82.7341C461.67 81.3208 461.585 79.8354 461.83 78.149C462.887 75.9533 464.589 74.8852 466.988 75.2834Z" fill="#F8A3C9"/>
</g>
<g clip-path="url(#clip3_1120_11026)">
<path d="M675.394 110.823H603.174V38.6028H675.394V110.823Z" fill="white"/>
<path d="M675.394 77.721V38.6353H603.174V110.855H675.394V89.7845C675.233 89.7845 675.394 77.721 675.394 77.721Z" fill="#006FCF"/>
<path d="M666.547 73.6996H672.016V60.9927H666.065V62.762L664.939 60.9927H659.792V63.2445L658.827 60.9927H649.337C649.015 60.9927 648.693 61.1535 648.372 61.1535C648.05 61.1535 647.889 61.3144 647.567 61.4752C647.246 61.6361 647.085 61.6361 646.763 61.7969V60.9927H619.58L618.776 63.0837L617.972 60.9927H611.538V63.2445L610.573 60.9927H605.426L603.174 66.4615V73.6996H606.873L607.517 71.9302H608.803L609.447 73.6996H637.756V72.0911L638.882 73.6996H646.763V72.7345C646.924 72.8953 647.246 72.8953 647.407 73.0562C647.567 73.217 647.889 73.217 648.05 73.3779C648.372 73.5387 648.693 73.5387 649.015 73.5387H654.806L655.449 71.7694H656.736L657.379 73.5387H665.261V71.9302L666.547 73.6996ZM675.394 89.7842V77.8816H631.161L630.035 79.49L628.909 77.8816H616.042V90.5884H628.909L630.035 88.98L631.161 90.5884H639.203V87.8541H638.882C640.008 87.8541 640.973 87.6932 641.777 87.3715V90.7493H647.567V89.1408L648.693 90.7493H672.66C673.625 90.4276 674.59 90.2668 675.394 89.7842Z" fill="white"/>
<path d="M672.66 86.7284H668.317V88.4977H672.499C674.268 88.4977 675.394 87.3718 675.394 85.7633C675.394 84.1549 674.429 83.3507 672.82 83.3507H670.89C670.408 83.3507 670.086 83.029 670.086 82.5464C670.086 82.0639 670.408 81.7422 670.89 81.7422H674.59L675.394 79.9729H671.051C669.282 79.9729 668.156 81.0988 668.156 82.5464C668.156 84.1549 669.121 84.9591 670.729 84.9591H672.66C673.142 84.9591 673.464 85.2808 673.464 85.7633C673.625 86.4067 673.303 86.7284 672.66 86.7284ZM664.778 86.7284H660.435V88.4977H664.617C666.387 88.4977 667.512 87.3718 667.512 85.7633C667.512 84.1549 666.547 83.3507 664.939 83.3507H663.009C662.526 83.3507 662.205 83.029 662.205 82.5464C662.205 82.0639 662.526 81.7422 663.009 81.7422H666.708L667.512 79.9729H663.17C661.4 79.9729 660.274 81.0988 660.274 82.5464C660.274 84.1549 661.239 84.9591 662.848 84.9591H664.778C665.261 84.9591 665.582 85.2808 665.582 85.7633C665.743 86.4067 665.261 86.7284 664.778 86.7284ZM659.148 81.5813V79.812H652.393V88.3369H659.148V86.5676H654.323V84.7983H658.988V83.029H654.323V81.4205H659.148V81.5813ZM648.211 81.5813C649.015 81.5813 649.337 82.0639 649.337 82.5464C649.337 83.029 649.015 83.5115 648.211 83.5115H645.798V81.4205L648.211 81.5813ZM645.798 85.2808H646.763L649.337 88.3369H651.749L648.854 85.12C650.302 84.7983 651.106 83.8332 651.106 82.5464C651.106 80.938 649.98 79.812 648.211 79.812H643.707V88.3369H645.637L645.798 85.2808ZM640.651 82.7073C640.651 83.3506 640.329 83.8332 639.525 83.8332H636.952V81.5813H639.364C640.169 81.5813 640.651 82.0639 640.651 82.7073ZM635.021 79.812V88.3369H636.952V85.4417H639.525C641.294 85.4417 642.581 84.3157 642.581 82.5464C642.581 80.938 641.455 79.6512 639.686 79.6512L635.021 79.812ZM632.126 88.3369H634.539L631.161 83.994L634.539 79.812H632.126L630.035 82.5464L627.944 79.812H625.531L628.909 83.994L625.531 88.176H627.944L630.035 85.4417L632.126 88.3369ZM624.888 81.5813V79.812H618.133V88.3369H624.888V86.5676H620.063V84.7983H624.727V83.029H620.063V81.4205H624.888V81.5813ZM663.974 66.4618L667.352 71.6089H669.764V63.084H667.834V68.7136L667.352 67.9094L664.296 63.084H661.722V71.6089H663.652V65.8184L663.974 66.4618ZM655.61 66.3009L656.253 64.5316L656.897 66.3009L657.701 68.2311H654.806L655.61 66.3009ZM658.988 71.6089H661.079L657.379 63.084H654.806L651.106 71.6089H653.197L654.001 69.8395H658.183L658.988 71.6089ZM649.98 71.6089L650.784 69.8395H650.302C648.854 69.8395 648.05 68.8745 648.05 67.4268V67.266C648.05 65.8184 648.854 64.8533 650.302 64.8533H652.393V63.084H650.141C647.567 63.084 646.12 64.8533 646.12 67.266V67.4268C646.12 70.0004 647.567 71.6089 649.98 71.6089ZM642.742 71.6089H644.672V63.2448H642.742V71.6089ZM638.56 64.8533C639.364 64.8533 639.686 65.3358 639.686 65.8184C639.686 66.3009 639.364 66.7835 638.56 66.7835H636.147V64.6924L638.56 64.8533ZM636.147 68.5528H637.112L639.686 71.6089H642.099L639.203 68.3919C640.651 68.0702 641.455 67.1051 641.455 65.8184C641.455 64.2099 640.329 63.084 638.56 63.084H634.056V71.6089H635.987L636.147 68.5528ZM632.609 64.8533V63.084H625.853V71.6089H632.609V69.8395H627.783V68.0702H632.448V66.3009H627.783V64.6924H632.609V64.8533ZM617.972 71.6089H619.741L622.154 64.6924V71.6089H624.084V63.084H620.867L618.937 68.8745L617.007 63.084H613.79V71.6089H615.72V64.6924L617.972 71.6089ZM607.517 66.3009L608.16 64.5316L608.803 66.3009L609.608 68.2311H606.712L607.517 66.3009ZM610.894 71.6089H612.985L609.286 63.084H606.873L603.174 71.6089H605.265L606.069 69.8395H610.251L610.894 71.6089Z" fill="#006FCF"/>
</g>
<defs>
<clipPath id="clip0_1120_11026">
<rect width="152" height="152" fill="white" transform="translate(200.254 -0.000488281)"/>
</clipPath>
<clipPath id="clip1_1120_11026">
<rect width="152" height="108.571" fill="white" transform="translate(0 21.7139)"/>
</clipPath>
<clipPath id="clip2_1120_11026">
<rect x="400.508" y="38.603" width="153.599" height="74.7937" rx="9.1701" fill="white"/>
</clipPath>
<clipPath id="clip3_1120_11026">
<rect width="72.381" height="72.381" fill="white" transform="translate(603.174 38.6028)"/>
</clipPath>
</defs>
</svg>
