<svg width="16" height="16" viewBox="0 0 16 16" fill="none" xmlns="http://www.w3.org/2000/svg">
<path d="M8.18516 14.125H4.30891C2.33064 14.125 0.636558 13.131 1.06764 10L1.7159 5.875C1.98163 4.31269 2.85754 3.8125 3.66065 3.8125H10.1432C10.9581 3.8125 11.7809 4.3577 12.0879 5.875L12.25 6.90625" stroke="#2D2B2A" stroke-linecap="round" stroke-linejoin="round"></path>
<path d="M9.67188 11.7813H11.7813M11.7813 11.7813H13.8906M11.7813 11.7813V13.8906M11.7813 11.7813V9.67188" stroke="#2D2B2A" stroke-linecap="round" stroke-linejoin="round"></path>
<path d="M4.75 4.75V4.00001C4.75 2.39224 5.80255 1.00003 7.09375 1.00003C8.38557 0.993082 9.43192 2.39224 9.4375 4.00001V4.75" stroke="#2D2B2A" stroke-linecap="round" stroke-linejoin="round"></path>
<path d="M9.4375 8.5H8.5" stroke="#2D2B2A" stroke-linecap="round" stroke-linejoin="round"></path>
<path d="M5.6875 8.5H4.75" stroke="#2D2B2A" stroke-linecap="round" stroke-linejoin="round"></path>
</svg>