<svg xmlns="http://www.w3.org/2000/svg" width="24" height="24" viewBox="0 0 24 24" fill="none">
<path fill-rule="evenodd" clip-rule="evenodd" d="M4 2.5C3.17157 2.5 2.5 3.17157 2.5 4V9.84615C2.5 10.6746 3.17157 11.3462 4 11.3462H9.84615C10.6746 11.3462 11.3462 10.6746 11.3462 9.84615V4C11.3462 3.17157 10.6746 2.5 9.84615 2.5H4ZM3.5 4C3.5 3.72386 3.72386 3.5 4 3.5H9.84615C10.1223 3.5 10.3462 3.72386 10.3462 4V9.84615C10.3462 10.1223 10.1223 10.3462 9.84615 10.3462H4C3.72386 10.3462 3.5 10.1223 3.5 9.84615V4ZM14.1538 2.5C13.3254 2.5 12.6538 3.17157 12.6538 4V9.84615C12.6538 10.6746 13.3254 11.3462 14.1538 11.3462H20C20.8284 11.3462 21.5 10.6746 21.5 9.84615V4C21.5 3.17157 20.8284 2.5 20 2.5H14.1538ZM13.6538 4C13.6538 3.72386 13.8777 3.5 14.1538 3.5H20C20.2761 3.5 20.5 3.72386 20.5 4V9.84615C20.5 10.1223 20.2761 10.3462 20 10.3462H14.1538C13.8777 10.3462 13.6538 10.1223 13.6538 9.84615V4ZM2.5 13.8462C2.5 13.0177 3.17157 12.3462 4 12.3462H9.84615C10.6746 12.3462 11.3462 13.0177 11.3462 13.8462V19.6923C11.3462 20.5207 10.6746 21.1923 9.84615 21.1923H4C3.17157 21.1923 2.5 20.5207 2.5 19.6923V13.8462ZM4 13.3462C3.72386 13.3462 3.5 13.57 3.5 13.8462V19.6923C3.5 19.9684 3.72386 20.1923 4 20.1923H9.84615C10.1223 20.1923 10.3462 19.9684 10.3462 19.6923V13.8462C10.3462 13.57 10.1223 13.3462 9.84615 13.3462H4ZM14.1538 12.3462C13.3254 12.3462 12.6538 13.0177 12.6538 13.8462V19.6923C12.6538 20.5207 13.3254 21.1923 14.1538 21.1923H20C20.8284 21.1923 21.5 20.5207 21.5 19.6923V13.8462C21.5 13.0177 20.8284 12.3462 20 12.3462H14.1538ZM13.6538 13.8462C13.6538 13.57 13.8777 13.3462 14.1538 13.3462H20C20.2761 13.3462 20.5 13.57 20.5 13.8462V19.6923C20.5 19.9684 20.2761 20.1923 20 20.1923H14.1538C13.8777 20.1923 13.6538 19.9684 13.6538 19.6923V13.8462Z" fill="#2D2B2A"></path>
</svg>