<svg width="24" height="24" viewBox="0 0 24 24" fill="none" xmlns="http://www.w3.org/2000/svg">
<path fill-rule="evenodd" clip-rule="evenodd" d="M2.99995 5.00011C3.31627 4.47636 5.75623 2.9426 6.99995 3.00011C7.37173 3.03092 7.73292 3.73926 7.99995 4.00011C8.61307 4.59883 9.90032 6.5236 9.99995 7.00011C10.2423 8.1688 9.57373 8.82218 9.99995 10.0001C11.0865 12.6589 12.34 13.9146 14.9999 15.0001C16.1769 15.4263 16.8312 14.7567 17.9999 15.0001C18.4755 15.0997 20.4012 16.387 20.9999 17.0001C21.2598 17.2661 21.9691 17.6283 21.9999 18.0001C22.0462 19.3095 20.3943 21.7742 19.9999 22.0001C19.0695 22.6656 17.4799 21.6882 15.9999 21.0001C11.8703 19.282 5.74998 13.2856 3.99995 9.00011C3.33033 7.52847 2.31801 5.93054 2.99995 5.00011Z" stroke="#2D2B2A" stroke-width="1.5" stroke-linecap="round" stroke-linejoin="round"></path>
</svg>