<svg xmlns="http://www.w3.org/2000/svg" width="24" height="24" viewBox="0 0 24 24" fill="none">
<path fill-rule="evenodd" clip-rule="evenodd" d="M3 3.5C3 2.67157 3.67157 2 4.5 2H9H9.5H10H15H15.5H16H20.5C21.3284 2 22 2.67157 22 3.5V19.5C22 20.3284 21.3284 21 20.5 21H16H15.5H15H10H9.5H9H4.5C3.67157 21 3 20.3284 3 19.5V3.5ZM15 20V3H10V20H15ZM16 20H20.5C20.7761 20 21 19.7761 21 19.5V3.5C21 3.22386 20.7761 3 20.5 3H16V20ZM4.5 3H9V20H4.5C4.22386 20 4 19.7761 4 19.5V3.5C4 3.22386 4.22386 3 4.5 3Z" fill="#2D2B2A"></path>
</svg>