<svg width="21" height="9" viewBox="0 0 21 9" fill="none" xmlns="http://www.w3.org/2000/svg">
<path d="M1.62676 7H0.476758L2.95676 0.76H4.24676L6.71676 7H5.53676L4.91676 5.36H2.23676L1.62676 7ZM3.57676 1.76L2.56676 4.38H4.58676L3.57676 1.76ZM7.63465 7V0.76H9.94465C10.618 0.76 11.198 0.893333 11.6846 1.16C12.178 1.42 12.5513 1.78667 12.8046 2.26C13.058 2.72667 13.1846 3.26333 13.1846 3.87C13.1846 4.47667 13.0513 5.01667 12.7846 5.49C12.5246 5.96333 12.148 6.33333 11.6546 6.6C11.168 6.86667 10.598 7 9.94465 7H7.63465ZM9.93465 5.95C10.608 5.95 11.128 5.76667 11.4946 5.4C11.8613 5.03333 12.0446 4.52333 12.0446 3.87C12.0446 3.22333 11.8613 2.71667 11.4946 2.35C11.1346 1.98333 10.618 1.8 9.94465 1.8H8.76465V5.95H9.93465ZM14.5389 7V0.76H16.8489C17.5223 0.76 18.1023 0.893333 18.5889 1.16C19.0823 1.42 19.4556 1.78667 19.7089 2.26C19.9623 2.72667 20.0889 3.26333 20.0889 3.87C20.0889 4.47667 19.9556 5.01667 19.6889 5.49C19.4289 5.96333 19.0523 6.33333 18.5589 6.6C18.0723 6.86667 17.5023 7 16.8489 7H14.5389ZM16.8389 5.95C17.5123 5.95 18.0323 5.76667 18.3989 5.4C18.7656 5.03333 18.9489 4.52333 18.9489 3.87C18.9489 3.22333 18.7656 2.71667 18.3989 2.35C18.0389 1.98333 17.5223 1.8 16.8489 1.8H15.6689V5.95H16.8389Z" fill="#2D2B2A"></path>
</svg>